<svg xmlns="http://www.w3.org/2000/svg" width="40" height="40" viewBox="0 0 40 40" fill="none">
  <!-- Book background -->
  <rect x="8" y="6" width="24" height="28" rx="3" fill="#FFDA6A"/>
  
  <!-- Book cover -->
  <rect x="8" y="6" width="24" height="28" rx="3" fill="#FF9A3C"/>
  
  <!-- Book pages -->
  <path d="M32 10V34C32 34 26 32 20 32C14 32 8 34 8 34V10C8 10 14 8 20 8C26 8 32 10 32 10Z" fill="#FFDA6A"/>
  
  <!-- Book binding -->
  <path d="M20 8V32" stroke="#FF9A3C" stroke-width="2"/>
  
  <!-- Book details -->
  <path d="M14 16H18" stroke="#FF9A3C" stroke-width="1.5" stroke-linecap="round"/>
  <path d="M14 20H18" stroke="#FF9A3C" stroke-width="1.5" stroke-linecap="round"/>
  <path d="M14 24H18" stroke="#FF9A3C" stroke-width="1.5" stroke-linecap="round"/>
  
  <path d="M22 16H26" stroke="#FF9A3C" stroke-width="1.5" stroke-linecap="round"/>
  <path d="M22 20H26" stroke="#FF9A3C" stroke-width="1.5" stroke-linecap="round"/>
  <path d="M22 24H26" stroke="#FF9A3C" stroke-width="1.5" stroke-linecap="round"/>
  
  <!-- Glow effect for dark mode -->
  <rect x="8" y="6" width="24" height="28" rx="3" stroke="#FFDA6A" stroke-width="1" stroke-opacity="0.5"/>
</svg> 