<svg xmlns="http://www.w3.org/2000/svg" width="40" height="40" viewBox="0 0 40 40" fill="none">
  <path d="M8 8C8 6.89543 8.89543 6 10 6H30C31.1046 6 32 6.89543 32 8V32C32 33.1046 31.1046 34 30 34H10C8.89543 34 8 33.1046 8 32V8Z" fill="#571CE0" opacity="0.8"/>
  <path d="M12 12C12 11.4477 12.4477 11 13 11H27C27.5523 11 28 11.4477 28 12V28C28 28.5523 27.5523 29 27 29H13C12.4477 29 12 28.5523 12 28V12Z" fill="white"/>
  <path d="M15 15H25V17H15V15Z" fill="#571CE0"/>
  <path d="M15 19H25V21H15V19Z" fill="#571CE0"/>
  <path d="M15 23H25V25H15V23Z" fill="#571CE0"/>
</svg> 